<?xml version="1.0" encoding="utf-8"?>
<!-- Generator: Adobe Illustrator 25.0.0, SVG Export Plug-In . SVG Version: 6.00 Build 0)  -->
<svg version="1.1" id="图层_1" xmlns="http://www.w3.org/2000/svg" xmlns:xlink="http://www.w3.org/1999/xlink" x="0px" y="0px"
	 viewBox="0 0 164 34.3" style="enable-background:new 0 0 164 34.3;" xml:space="preserve">
<style type="text/css">
	.st0{fill:#FFFFFF;}
	.st1{fill:#1FC399;}
</style>
<g>
	<path class="st0" d="M141.4,25.1c-0.1-0.1-0.2-0.2-0.2-0.3c0-0.1-0.1-0.3-0.1-0.6v-9.5l-0.9,0.2v9.3c0,0.4,0,0.7,0.1,0.9
		c0.1,0.2,0.2,0.4,0.4,0.6s0.4,0.3,0.6,0.3c0.2,0.1,0.5,0.1,0.8,0.1l0.1-0.8c-0.2,0-0.4-0.1-0.5-0.1S141.5,25.2,141.4,25.1z"/>
	<path class="st0" d="M148.2,19.1c-0.2-0.2-0.5-0.4-0.8-0.6c-0.3-0.1-0.8-0.2-1.3-0.2s-0.9,0-1.2,0.1s-0.6,0.1-0.8,0.2l0.1,0.8
		c0.1,0,0.3-0.1,0.6-0.2s0.7-0.1,1.2-0.1c0.4,0,0.7,0.1,0.9,0.2s0.4,0.3,0.6,0.5c0.1,0.2,0.2,0.4,0.3,0.7c0,0.2,0.1,0.5,0.1,0.8v0.5
		c0,0-0.1,0-0.2-0.1c-0.1,0-0.2,0-0.4-0.1c-0.1,0-0.3,0-0.4-0.1c-0.2,0-0.3,0-0.4,0c-0.5,0-0.9,0-1.3,0.1c-0.4,0.1-0.7,0.2-1,0.4
		c-0.3,0.2-0.5,0.4-0.7,0.7c-0.2,0.3-0.2,0.6-0.2,1.1c0,0.4,0.1,0.8,0.2,1.1c0.1,0.3,0.3,0.5,0.6,0.7c0.2,0.2,0.5,0.3,0.9,0.4
		c0.3,0.1,0.7,0.1,1.1,0.1c0.3,0,0.6,0,0.9,0c0.3,0,0.6-0.1,0.8-0.1s0.5-0.1,0.6-0.1c0.2,0,0.3-0.1,0.4-0.1V21c0-0.4,0-0.8-0.1-1.1
		C148.6,19.6,148.4,19.3,148.2,19.1z M147.9,25.2c-0.2,0-0.4,0.1-0.7,0.1s-0.6,0-1,0c-0.3,0-0.6,0-0.8-0.1s-0.4-0.1-0.6-0.3
		c-0.2-0.1-0.3-0.3-0.4-0.5c-0.1-0.2-0.1-0.4-0.1-0.7c0-0.3,0.1-0.6,0.2-0.8c0.1-0.2,0.3-0.3,0.5-0.5c0.2-0.1,0.4-0.2,0.7-0.2
		s0.5-0.1,0.7-0.1c0.4,0,0.7,0,1,0.1c0.2,0.1,0.4,0.1,0.5,0.2L147.9,25.2L147.9,25.2z"/>
	<path class="st0" d="M156.7,19.4c-0.3-0.4-0.7-0.6-1.1-0.8c-0.4-0.2-0.9-0.3-1.5-0.3c-0.5,0-0.9,0.1-1.3,0.2
		c-0.4,0.1-0.6,0.3-0.8,0.4v-4.2l-0.9,0.2v10.9c0.3,0.1,0.6,0.2,1.1,0.3c0.4,0.1,1,0.1,1.7,0.1c0.6,0,1.1-0.1,1.5-0.3
		c0.5-0.2,0.8-0.4,1.2-0.8c0.3-0.3,0.6-0.8,0.8-1.2c0.2-0.5,0.3-1,0.3-1.6s-0.1-1.1-0.2-1.6C157.2,20.2,157,19.8,156.7,19.4z
		 M155.8,24.5c-0.5,0.5-1.2,0.8-2,0.8c-0.5,0-0.8,0-1.1-0.1c-0.3,0-0.5-0.1-0.6-0.1v-5.3c0.1-0.1,0.2-0.1,0.3-0.2s0.3-0.2,0.5-0.2
		c0.2-0.1,0.4-0.1,0.6-0.2c0.2,0,0.4-0.1,0.6-0.1c0.5,0,0.9,0.1,1.2,0.2c0.3,0.2,0.6,0.4,0.8,0.7c0.2,0.3,0.3,0.6,0.4,1
		c0.1,0.4,0.1,0.8,0.1,1.2C156.5,23.2,156.3,24,155.8,24.5z"/>
	<path class="st0" d="M163.7,23.2c-0.1-0.2-0.3-0.4-0.5-0.6s-0.4-0.3-0.7-0.4s-0.5-0.2-0.8-0.4c-0.3-0.1-0.5-0.2-0.8-0.3
		c-0.2-0.1-0.4-0.2-0.6-0.3c-0.2-0.1-0.3-0.2-0.3-0.4c-0.1-0.1-0.1-0.3-0.1-0.5s0-0.4,0.1-0.5s0.2-0.3,0.4-0.4s0.3-0.2,0.5-0.2
		s0.4-0.1,0.6-0.1c0.5,0,0.9,0,1.2,0.1s0.5,0.2,0.6,0.2l0.2-0.8c-0.1-0.1-0.4-0.1-0.7-0.2s-0.8-0.1-1.3-0.1c-0.8,0-1.4,0.2-1.9,0.6
		s-0.7,0.9-0.7,1.5c0,0.3,0.1,0.6,0.2,0.8c0.1,0.2,0.3,0.4,0.5,0.6s0.4,0.3,0.7,0.4s0.5,0.2,0.8,0.4c0.4,0.1,0.6,0.3,0.9,0.4
		c0.2,0.1,0.4,0.2,0.6,0.3c0.1,0.1,0.3,0.2,0.3,0.4c0.1,0.1,0.1,0.3,0.1,0.5c0,0.4-0.2,0.7-0.5,0.9c-0.4,0.2-0.8,0.3-1.4,0.3
		c-0.3,0-0.6,0-0.8-0.1c-0.2,0-0.4-0.1-0.6-0.1c-0.2-0.1-0.3-0.1-0.4-0.1c-0.1,0-0.2-0.1-0.2-0.1l-0.2,0.9c0.1,0.1,0.4,0.1,0.7,0.3
		c0.4,0.1,0.9,0.2,1.5,0.2c0.9,0,1.6-0.2,2.1-0.5c0.5-0.4,0.8-0.9,0.8-1.5C163.9,23.8,163.8,23.5,163.7,23.2z"/>
	<path class="st0" d="M63.9,16.7c-0.1,0-0.2-0.2-0.2-0.3c0-0.1,0.1-0.3,0.2-0.4c0.7-0.3,1.2-0.8,1.6-1.3s0.5-1.2,0.5-2
		s-0.2-1.6-0.5-2.1c-0.3-0.6-0.8-1-1.5-1.4c-0.6-0.4-1.4-0.6-2.3-0.8c-0.9-0.2-1.9-0.2-3-0.2c-0.4,0-0.8,0-1.2,0s-0.9,0-1.3,0.1
		c-0.4,0-0.9,0.1-1.3,0.1c-0.3,0-0.6,0.1-0.9,0.1v16.9c0.6,0.1,1.4,0.2,2.2,0.3c1,0.1,1.9,0.1,2.9,0.1c2.7,0,4.7-0.4,6-1.3
		s1.9-2.1,1.9-3.9c0-1-0.2-1.8-0.7-2.5C65.6,17.5,64.9,17,63.9,16.7z M56.4,10.6c0-0.2,0.1-0.3,0.3-0.4c0.3,0,0.6-0.1,1-0.1
		s0.8,0,1.4,0c1.2,0,2.2,0.2,3,0.6c0.9,0.4,1.3,1.2,1.3,2.2c0,1.1-0.4,1.8-1.3,2.2c-0.8,0.4-1.8,0.6-3.1,0.6h-2.3
		c-0.2,0-0.4-0.2-0.4-0.4L56.4,10.6L56.4,10.6z M63.8,22.2c-0.3,0.4-0.7,0.7-1.1,1c-0.5,0.2-1,0.4-1.6,0.5s-1.2,0.1-1.9,0.1
		c-0.4,0-0.7,0-1.2,0c-0.4,0-0.8,0-1.2-0.1c-0.2,0-0.3-0.2-0.3-0.4v-5.5c0-0.2,0.2-0.4,0.4-0.4h2.9c1.4,0,2.5,0.2,3.3,0.6
		c0.9,0.5,1.3,1.3,1.3,2.5C64.2,21.3,64.1,21.8,63.8,22.2z"/>
	<path class="st0" d="M85.8,14.3c-0.5-0.6-1.2-1-1.9-1.4c-0.8-0.3-1.6-0.5-2.5-0.5s-1.7,0.2-2.5,0.5c-0.7,0.3-1.4,0.8-1.9,1.4
		c-0.5,0.6-1,1.3-1.3,2.1s-0.5,1.8-0.5,2.8s0.2,2,0.5,2.8s0.7,1.6,1.3,2.1c0.5,0.6,1.2,1,1.9,1.4c0.7,0.3,1.6,0.5,2.5,0.5
		s1.8-0.2,2.5-0.5c0.8-0.3,1.4-0.8,1.9-1.4s1-1.3,1.3-2.1c0.3-0.8,0.4-1.8,0.4-2.8s-0.2-2-0.5-2.8C86.7,15.6,86.3,14.9,85.8,14.3z
		 M84.1,22.7c-0.7,0.9-1.6,1.3-2.7,1.3c-1.2,0-2.1-0.5-2.7-1.3c-0.6-0.9-0.9-2-0.9-3.5c0-1.4,0.3-2.6,0.9-3.4
		c0.7-0.9,1.6-1.3,2.7-1.3c1.2,0,2.1,0.4,2.7,1.3c0.6,0.8,0.9,2,0.9,3.4S84.7,21.8,84.1,22.7z"/>
	<path class="st0" d="M97.9,23.8c-0.5,0.1-1.1,0.2-1.7,0.2c-1.6,0-2.7-0.4-3.4-1.3c-0.7-0.8-1-2-1-3.4c0-1.5,0.4-2.7,1-3.5
		c0.7-0.9,1.8-1.3,3.1-1.3c0.5,0,1.1,0.1,1.5,0.2c0.3,0.1,0.6,0.2,0.9,0.3l0.7-2c-1-0.4-2.1-0.6-3.2-0.6c-1,0-1.9,0.2-2.7,0.5
		c-0.8,0.3-1.5,0.8-2,1.4c-0.5,0.6-1,1.3-1.3,2.2c-0.3,0.8-0.4,1.7-0.4,2.7s0.1,1.9,0.4,2.7c0.3,0.8,0.7,1.5,1.2,2.1s1.2,1.1,2,1.4
		s1.8,0.5,2.9,0.5c0.7,0,1.4-0.1,2.1-0.2c0.5-0.1,0.9-0.2,1.2-0.3l-0.3-1.9C98.6,23.7,98.3,23.8,97.9,23.8z"/>
	<path class="st0" d="M125.8,9.5c-1.3-0.9-3.3-1.4-5.8-1.4c-0.8,0-1.6,0-2.5,0.1c-0.8,0.1-1.5,0.1-2.2,0.3v17.1h2.5v-6
		c0-0.2,0.2-0.4,0.4-0.4h1.6c1.3,0,2.4-0.1,3.4-0.3c1-0.2,1.8-0.5,2.5-1c0.7-0.4,1.2-1,1.5-1.7c0.3-0.7,0.5-1.6,0.5-2.6
		C127.7,11.8,127.1,10.4,125.8,9.5z M123.5,16.5c-0.9,0.5-2.2,0.7-3.8,0.7h-1.6c-0.2,0-0.4-0.2-0.4-0.4v-6.1c0-0.2,0.1-0.3,0.3-0.4
		c0.6-0.1,1.3-0.1,2.1-0.1c0.6,0,1.3,0,1.8,0.1c0.6,0.1,1.1,0.3,1.5,0.5c0.5,0.3,0.8,0.6,1.1,1.1c0.3,0.5,0.4,1,0.4,1.7
		C125,15.1,124.5,16,123.5,16.5z"/>
	<path class="st0" d="M72.4,23.3C72.2,23,72,22.8,72,22.5c-0.1-0.3-0.1-0.6-0.1-1V8.3l-2.4,0.6V22c0,0.6,0.1,1.2,0.2,1.7
		s0.4,0.9,0.7,1.2c0.3,0.3,0.8,0.6,1.3,0.7c0.5,0.2,1.2,0.3,1.9,0.3l0.2-1.1l0.1-0.9c-0.3,0-0.5-0.1-0.7-0.2
		C72.8,23.7,72.6,23.5,72.4,23.3z"/>
	<path class="st0" d="M110.8,22.2c-0.5-0.7-1.1-1.3-1.6-1.9c-0.6-0.6-1.1-1.1-1.6-1.5c-0.1-0.1-0.1-0.2-0.1-0.3c0-0.1,0-0.2,0.1-0.3
		c1-1,1.9-2,2.9-3c0.8-0.9,1.5-1.6,2.2-2.4H110c-0.3,0.3-0.6,0.6-0.9,1c-0.4,0.4-0.8,0.9-1.2,1.4c-0.4,0.5-0.9,1-1.3,1.4
		c-0.5,0.5-0.9,0.9-1.3,1.3c-0.1,0.1-0.2,0.1-0.3,0.1h-0.1c-0.1-0.1-0.2-0.2-0.2-0.3V8.3l-2.4,0.6v16.7h2.4v-5.9
		c0-0.1,0.1-0.3,0.2-0.3s0.1,0,0.2,0s0.2,0,0.2,0.1c0.5,0.4,1,0.8,1.5,1.3s1,1,1.4,1.6c0.5,0.6,0.9,1.1,1.3,1.7c0.4,0.5,0.7,1,1,1.5
		h2.8c-0.2-0.4-0.5-0.9-0.9-1.4C111.8,23.6,111.3,22.9,110.8,22.2z"/>
	<polygon class="st0" points="130.1,25.7 132.7,25.7 132.7,8.3 130.1,8.9 	"/>
</g>
<path class="st1" d="M40,6.3L40,6.3V6.1l0,0C40,6,40,6,40,5.9c0,0,0,0,0-0.1s-0.1-0.1-0.1-0.2l0,0l-0.1-0.1l0,0l-6.5-5.3l0,0
	c-0.1,0-0.1-0.1-0.2-0.1c0,0,0,0-0.1,0C32.8,0,32.7,0,32.7,0l0,0c-0.1,0-0.1,0-0.2,0c0,0,0,0-0.1,0c0,0,0,0-0.1,0L0.7,8
	c0,0-0.1,0-0.1,0.1l0,0l0,0c-0.1,0-0.2,0.1-0.2,0.1l0,0c-0.1,0-0.1,0.1-0.1,0.2l0,0C0.1,8.5,0,8.6,0,8.7c0,0,0,0,0,0.1
	c0,0,0,0.1,0,0.2l0,0l-0.1,6.7c0,0,0,0,0,0.1v0.1V16v0.1v0.1c0,0,0,0.1,0.1,0.1c0,0,0,0.1,0.1,0.1l0.1,0.1c0,0,0,0,0.1,0.1l0.1,0.1
	c1.2,1,3.9,3.7,3.8,5.9c0,2.2-0.1,5.8-0.1,5.8c0,0.3,0.1,0.6,0.4,0.8l5.8,4.9l0,0c0,0,0.1,0,0.1,0.1c0,0,0,0,0.1,0h0.1
	c0,0,0,0,0.1,0h0.1l0,0c0.1,0,0.1,0,0.2,0l0,0c0.1,0,0.2,0,0.2,0l0,0l6.4-1.7c0.5-0.1,0.8-0.5,0.8-1l0.1-9.6c0-0.3,0.2-2.6,2.1-4
	c1.5,0.3,1.5,1.6,1.4,2V20v3.6c0,0.3,0.1,0.6,0.4,0.8l5.8,4.8l0,0c0,0,0,0,0.1,0c0,0,0.1,0,0.1,0.1h0.1h0.1h0.1h0.1l0,0l0,0
	c0.1,0,0.2,0,0.2,0l0,0l6.3-1.6c0.5-0.1,0.8-0.5,0.8-1l0.1-9.2l0,0c0-0.3,0.1-2.6,2.8-3.8c0.1,0,0.2,0,0.2-0.1
	c0.4-0.2,0.6-0.5,0.6-0.9L40,6.3L40,6.3z M7.7,13.1L3.3,9.5l28.2-7.1l-0.1,4.7L7.7,13.1z M2,15.3v-4l4.4,3.6v4L2,15.3z M33.5,3.2
	l3.2,2.6l-3.2,0.8V3.2z M37.9,7.7v3.2l-3.1-2.4L37.9,7.7z M6.2,21.4l0.6,0.5l0,0c0,0,0,0,0.1,0c0,0,0.1,0,0.1,0.1c0,0,0,0,0.1,0h0.1
	l0,0c1,0.2,2.7,1.4,2.8,3l-0.1,6l-3.7-3.1c0-1.1,0.1-3.6,0.1-5.3C6.3,22.2,6.2,21.8,6.2,21.4z M23.3,17.3c-0.1-0.1-0.1-0.2-0.2-0.2
	l0,0c1.2-0.2,2.2,0.1,3,0.7c1.5,1.3,1.7,3.7,1.7,4l-0.1,4.7L24,23.4v-3.1C24.2,19.9,24.2,18.5,23.3,17.3z M34.2,17.9L34.2,17.9
	l-0.1,8.4l-4.2,1.1l0.1-5.5c0,0,0,0,0-0.1s-0.2-3.6-2.5-5.5c-1.2-1-2.8-1.4-4.6-1.2c-4.9,0.6-6.4,4.8-6.5,6.9l0,0l-0.1,8.8L12,31.9
	V25c0,0,0,0,0-0.1c-0.1-2.3-2-3.9-3.6-4.7L8.5,15l23.7-6l4.8,3.8C34.4,14.7,34.2,17.4,34.2,17.9z"/>
</svg>
