<?xml version="1.0" encoding="utf-8"?>
<!-- Generator: Adobe Illustrator 22.1.0, SVG Export Plug-In . SVG Version: 6.00 Build 0)  -->
<svg version="1.1" id="图层_1" xmlns="http://www.w3.org/2000/svg" xmlns:xlink="http://www.w3.org/1999/xlink" x="0px" y="0px"
	 viewBox="0 0 102 102" style="enable-background:new 0 0 102 102;" xml:space="preserve">
<style type="text/css">
	.st0{fill:#1B262C;}
	.st1{fill:#22313A;}
	.st2{fill:#26353D;}
	.st3{fill:#3877FF;}
	.st4{fill:#C47945;}
	.st5{fill:#A74FAA;}
	.st6{fill:#16C79A;}
	.st7{fill:#3D4A52;}
	.st8{fill:#FFFFFF;}
	.st9{fill:#282D49;}
	.st10{fill:none;stroke:#51AAF4;stroke-miterlimit:10;}
	.st11{fill:none;stroke:#FFFFFF;stroke-width:5;stroke-miterlimit:10;}
	.st12{fill:#FFFFFF;stroke:#FFFFFF;stroke-width:0.75;stroke-miterlimit:10;}
	.st13{fill:none;stroke:#22313A;stroke-width:2;stroke-miterlimit:10;}
	.st14{fill:none;stroke:#3877FF;stroke-width:2;stroke-miterlimit:10;}
	.st15{fill:none;stroke:#16C79A;stroke-width:2;stroke-miterlimit:10;}
	.st16{fill:none;stroke:#22313A;stroke-width:2;stroke-linecap:round;stroke-linejoin:round;stroke-miterlimit:10;}
	.st17{fill:#16C79A;stroke:#282D49;stroke-width:2;stroke-miterlimit:10;}
	.st18{fill:none;stroke:#C47945;stroke-width:2;stroke-miterlimit:10;}
	.st19{fill:#C47945;stroke:#22313A;stroke-width:2;stroke-miterlimit:10;}
	.st20{fill:none;stroke:#A74FAA;stroke-width:2;stroke-miterlimit:10;}
	.st21{fill:#A74FAA;stroke:#282D49;stroke-width:2;stroke-miterlimit:10;}
	.st22{fill:url(#SVGID_1_);}
	.st23{fill:#FFF0F0;}
	.st24{fill:#FF33FF;}
	.st25{fill:#5967EA;}
	.st26{fill:#0F0F0F;}
	.st27{fill:none;stroke:#282D49;stroke-width:2;stroke-miterlimit:10;}
	.st28{fill:none;stroke:#282D49;stroke-width:8;stroke-linecap:round;stroke-linejoin:round;stroke-miterlimit:10;}
	.st29{fill:#16C79A;stroke:#282D49;stroke-width:8;stroke-linecap:round;stroke-linejoin:round;stroke-miterlimit:10;}
	.st30{fill:#00EF8B;}
	.st31{fill:#16FF99;}
	.st32{clip-path:url(#SVGID_3_);}
	.st33{fill:url(#SVGID_4_);}
	.st34{fill:#633001;}
	.st35{fill:#FEDC90;}
	.st36{fill:#D1884F;}
	.st37{fill:#8247E5;}
	.st38{fill:#F3BA2F;}
	.st39{fill:url(#SVGID_5_);}
	.st40{fill:url(#SVGID_6_);}
	.st41{fill:url(#SVGID_7_);}
	.st42{fill:#343434;}
	.st43{fill:#8C8C8C;}
	.st44{fill:#3C3C3B;}
	.st45{fill:#141414;}
	.st46{fill:#393939;}
	.st47{fill:url(#SVGID_8_);}
	.st48{fill:#FF007A;}
</style>
<g>
	<g>
		<defs>
			<rect id="SVGID_2_" x="25.3" y="25.3" width="51.5" height="51.5"/>
		</defs>
		<clipPath id="SVGID_1_">
			<use xlink:href="#SVGID_2_"  style="overflow:visible;"/>
		</clipPath>
		<g id="b" style="clip-path:url(#SVGID_1_);">
			
				<linearGradient id="SVGID_3_" gradientUnits="userSpaceOnUse" x1="-1621.7174" y1="-1656.2086" x2="-1621.7653" y2="-1656.1685" gradientTransform="matrix(776 0 0 776 1258522.25 1285253.25)">
				<stop  offset="0" style="stop-color:#B6509E"/>
				<stop  offset="1" style="stop-color:#2EBAC6"/>
			</linearGradient>
			<circle style="fill:url(#SVGID_3_);" cx="51" cy="51" r="25"/>
			<path class="st8" d="M61.9,60.9l-8.4-20.4C53,39.5,52.3,39,51.4,39h-0.7c-0.9,0-1.6,0.5-2.1,1.6l-3.7,8.9h-2.8
				c-0.8,0-1.5,0.7-1.5,1.5v0c0,0.8,0.7,1.5,1.5,1.5h1.5L40,60.9c-0.1,0.2-0.1,0.4-0.1,0.6c0,0.5,0.1,0.8,0.4,1.1
				c0.3,0.3,0.6,0.4,1.1,0.4c0.3,0,0.6-0.1,0.9-0.3c0.3-0.2,0.5-0.5,0.6-0.8l3.9-9.6h2.7c0.8,0,1.5-0.7,1.5-1.5v0
				c0-0.8-0.7-1.5-1.5-1.5H48l2.9-7.3l8,20c0.1,0.3,0.3,0.6,0.6,0.8c0.3,0.2,0.6,0.3,0.9,0.3c0.5,0,0.8-0.1,1.1-0.4
				c0.3-0.3,0.4-0.7,0.4-1.1C62,61.3,62,61.1,61.9,60.9z"/>
		</g>
	</g>
</g>
</svg>
