<?xml version="1.0" encoding="utf-8"?>
<!-- Generator: Adobe Illustrator 22.1.0, SVG Export Plug-In . SVG Version: 6.00 Build 0)  -->
<svg version="1.1" id="图层_1" xmlns="http://www.w3.org/2000/svg" xmlns:xlink="http://www.w3.org/1999/xlink" x="0px" y="0px"
	 viewBox="0 0 102 102" style="enable-background:new 0 0 102 102;" xml:space="preserve">
<style type="text/css">
	.st0{fill:#1B262C;}
	.st1{fill:#22313A;}
	.st2{fill:#26353D;}
	.st3{fill:#3877FF;}
	.st4{fill:#C47945;}
	.st5{fill:#A74FAA;}
	.st6{fill:#16C79A;}
	.st7{fill:#3D4A52;}
	.st8{fill:#FFFFFF;}
	.st9{fill:#282D49;}
	.st10{fill:none;stroke:#51AAF4;stroke-miterlimit:10;}
	.st11{fill:none;stroke:#FFFFFF;stroke-width:5;stroke-miterlimit:10;}
	.st12{fill:#FFFFFF;stroke:#FFFFFF;stroke-width:0.75;stroke-miterlimit:10;}
	.st13{fill:none;stroke:#22313A;stroke-width:2;stroke-miterlimit:10;}
	.st14{fill:none;stroke:#3877FF;stroke-width:2;stroke-miterlimit:10;}
	.st15{fill:none;stroke:#16C79A;stroke-width:2;stroke-miterlimit:10;}
	.st16{fill:none;stroke:#22313A;stroke-width:2;stroke-linecap:round;stroke-linejoin:round;stroke-miterlimit:10;}
	.st17{fill:#16C79A;stroke:#282D49;stroke-width:2;stroke-miterlimit:10;}
	.st18{fill:none;stroke:#C47945;stroke-width:2;stroke-miterlimit:10;}
	.st19{fill:#C47945;stroke:#22313A;stroke-width:2;stroke-miterlimit:10;}
	.st20{fill:none;stroke:#A74FAA;stroke-width:2;stroke-miterlimit:10;}
	.st21{fill:#A74FAA;stroke:#282D49;stroke-width:2;stroke-miterlimit:10;}
	.st22{fill:url(#SVGID_1_);}
	.st23{fill:#FFF0F0;}
	.st24{fill:#FF33FF;}
	.st25{fill:#5967EA;}
	.st26{fill:#0F0F0F;}
	.st27{fill:none;stroke:#282D49;stroke-width:2;stroke-miterlimit:10;}
	.st28{fill:none;stroke:#282D49;stroke-width:8;stroke-linecap:round;stroke-linejoin:round;stroke-miterlimit:10;}
	.st29{fill:#16C79A;stroke:#282D49;stroke-width:8;stroke-linecap:round;stroke-linejoin:round;stroke-miterlimit:10;}
	.st30{fill:#00EF8B;}
	.st31{fill:#16FF99;}
	.st32{clip-path:url(#SVGID_3_);}
	.st33{fill:url(#SVGID_4_);}
	.st34{fill:#633001;}
	.st35{fill:#FEDC90;}
	.st36{fill:#D1884F;}
	.st37{fill:#8247E5;}
	.st38{fill:#F3BA2F;}
	.st39{fill:url(#SVGID_5_);}
	.st40{fill:url(#SVGID_6_);}
	.st41{fill:url(#SVGID_7_);}
	.st42{fill:#343434;}
	.st43{fill:#8C8C8C;}
	.st44{fill:#3C3C3B;}
	.st45{fill:#141414;}
	.st46{fill:#393939;}
	.st47{fill:url(#SVGID_8_);}
	.st48{fill:#FF007A;}
</style>
<g>
	<polygon class="st38" points="41.9,47.3 51,38.2 60.1,47.3 65.4,42 51,27.6 36.6,42 	"/>
	
		<rect x="29.1" y="47.3" transform="matrix(0.7071 -0.7071 0.7071 0.7071 -26.446 38.1524)" class="st38" width="7.5" height="7.5"/>
	<polygon class="st38" points="41.9,54.7 51,63.8 60.1,54.7 65.4,60 65.4,60 51,74.4 36.6,60 36.6,60 	"/>
	
		<rect x="65.4" y="47.3" transform="matrix(0.7071 -0.7071 0.7071 0.7071 -15.8237 63.8019)" class="st38" width="7.5" height="7.5"/>
	<polygon class="st38" points="56.3,51 56.3,51 51,45.6 47,49.6 47,49.6 46.5,50.1 45.6,51 45.6,51 45.6,51 45.6,51 51,56.4 
		56.3,51 56.3,51 	"/>
</g>
</svg>
