<?xml version="1.0" encoding="utf-8"?>
<!-- Generator: Adobe Illustrator 23.0.1, SVG Export Plug-In . SVG Version: 6.00 Build 0)  -->
<svg version="1.1" id="图层_1" xmlns="http://www.w3.org/2000/svg" xmlns:xlink="http://www.w3.org/1999/xlink" x="0px" y="0px"
	 viewBox="0 0 200 200" style="enable-background:new 0 0 200 200;" xml:space="preserve">
<style type="text/css">
	.st0{fill:#D9E7FF;}
	.st1{fill:#46579C;}
	.st2{fill:#FFFFFF;}
	.st3{font-family:'FontAwesome';}
	.st4{font-size:60.2584px;}
</style>
<path class="st0" d="M0,100c0,55.2,44.8,100,100,100s100-44.8,100-100S155.2,0,100,0S0,44.8,0,100z"/>
<path class="st1" d="M44.9,64.2l68.2-12c5.1-0.9,8,1.2,8.9,6.2l16.5,93.4c0.9,5.1-1.2,8-6.2,8.9l-68.2,12c-5.1,0.9-8-1.2-8.9-6.2
	L38.6,73.1C37.7,68.1,39.8,65.1,44.9,64.2z"/>
<path class="st2" d="M66.7,48.7h69.2c5.1,0,7.7,2.6,7.7,7.7v94.9c0,5.1-2.6,7.7-7.7,7.7H66.7c-5.1,0-7.7-2.6-7.7-7.7V56.4
	C59,51.3,61.5,48.7,66.7,48.7z"/>
<path class="st1" d="M142.1,154.5l18.7,14.3c1.7,1.3,4.1,1,5.4-0.7c1.3-1.7,1-4.1-0.7-5.4l0,0l-18.7-14.3c-1.7-1.3-4.1-1-5.4,0.7
	S140.5,153.2,142.1,154.5L142.1,154.5z"/>
<text transform="matrix(1.0326 0 0 1 81.8911 120.8027)" class="st0 st3 st4">?</text>
<path class="st1" d="M124.4,165.4c15.6,0,28.2-12.6,28.2-28.2S139.9,109,124.4,109s-28.2,12.6-28.2,28.2S108.8,165.4,124.4,165.4z
	 M124.4,157.7c-11.3,0-20.5-9.2-20.5-20.5c0-11.3,9.2-20.5,20.5-20.5c0,0,0,0,0,0c11.3,0,20.5,9.2,20.5,20.5
	C144.9,148.5,135.7,157.7,124.4,157.7z"/>
</svg>
