<?xml version="1.0" encoding="utf-8"?>
<!-- Generator: Adobe Illustrator 22.1.0, SVG Export Plug-In . SVG Version: 6.00 Build 0)  -->
<svg version="1.1" id="图层_1" xmlns="http://www.w3.org/2000/svg" xmlns:xlink="http://www.w3.org/1999/xlink" x="0px" y="0px"
	 viewBox="0 0 102 102" style="enable-background:new 0 0 102 102;" xml:space="preserve">
<style type="text/css">
	.st0{fill:#1B262C;}
	.st1{fill:#22313A;}
	.st2{fill:#26353D;}
	.st3{fill:#3877FF;}
	.st4{fill:#C47945;}
	.st5{fill:#A74FAA;}
	.st6{fill:#16C79A;}
	.st7{fill:#3D4A52;}
	.st8{fill:#FFFFFF;}
	.st9{fill:#282D49;}
	.st10{fill:none;stroke:#51AAF4;stroke-miterlimit:10;}
	.st11{fill:none;stroke:#FFFFFF;stroke-width:5;stroke-miterlimit:10;}
	.st12{fill:#FFFFFF;stroke:#FFFFFF;stroke-width:0.75;stroke-miterlimit:10;}
	.st13{fill:none;stroke:#22313A;stroke-width:2;stroke-miterlimit:10;}
	.st14{fill:none;stroke:#3877FF;stroke-width:2;stroke-miterlimit:10;}
	.st15{fill:none;stroke:#16C79A;stroke-width:2;stroke-miterlimit:10;}
	.st16{fill:none;stroke:#22313A;stroke-width:2;stroke-linecap:round;stroke-linejoin:round;stroke-miterlimit:10;}
	.st17{fill:#16C79A;stroke:#282D49;stroke-width:2;stroke-miterlimit:10;}
	.st18{fill:none;stroke:#C47945;stroke-width:2;stroke-miterlimit:10;}
	.st19{fill:#C47945;stroke:#22313A;stroke-width:2;stroke-miterlimit:10;}
	.st20{fill:none;stroke:#A74FAA;stroke-width:2;stroke-miterlimit:10;}
	.st21{fill:#A74FAA;stroke:#282D49;stroke-width:2;stroke-miterlimit:10;}
	.st22{fill:url(#SVGID_1_);}
	.st23{fill:#FFF0F0;}
	.st24{fill:#FF33FF;}
	.st25{fill:#5967EA;}
	.st26{fill:#0F0F0F;}
	.st27{fill:none;stroke:#282D49;stroke-width:2;stroke-miterlimit:10;}
	.st28{fill:none;stroke:#282D49;stroke-width:8;stroke-linecap:round;stroke-linejoin:round;stroke-miterlimit:10;}
	.st29{fill:#16C79A;stroke:#282D49;stroke-width:8;stroke-linecap:round;stroke-linejoin:round;stroke-miterlimit:10;}
	.st30{fill:#00EF8B;}
	.st31{fill:#16FF99;}
	.st32{clip-path:url(#SVGID_3_);}
	.st33{fill:url(#SVGID_4_);}
	.st34{fill:#633001;}
	.st35{fill:#FEDC90;}
	.st36{fill:#D1884F;}
	.st37{fill:#8247E5;}
	.st38{fill:#F3BA2F;}
	.st39{fill:url(#SVGID_5_);}
	.st40{fill:url(#SVGID_6_);}
	.st41{fill:url(#SVGID_7_);}
	.st42{fill:#343434;}
	.st43{fill:#8C8C8C;}
	.st44{fill:#3C3C3B;}
	.st45{fill:#141414;}
	.st46{fill:#393939;}
	.st47{fill:url(#SVGID_8_);}
	.st48{fill:#FF007A;}
</style>
<path d="M62.6,33.8l-8,11.9c-0.6,0.8,0.5,1.8,1.3,1.1l7.9-6.8c0.2-0.2,0.5,0,0.5,0.3v21.4c0,0.3-0.4,0.4-0.6,0.2L39.8,33.3
	c-0.8-0.9-1.9-1.4-3.1-1.4h-0.9c-2.2,0-4,1.8-4,4.1v30.1c0,2.3,1.8,4.1,4.1,4.1c1.4,0,2.7-0.7,3.5-2l8-11.9c0.6-0.8-0.5-1.8-1.3-1.1
	L38.3,62c-0.2,0.2-0.5,0-0.5-0.3V40.4c0-0.3,0.4-0.4,0.6-0.2l23.8,28.5c0.8,0.9,1.9,1.4,3.1,1.4h0.9c2.3,0,4.1-1.8,4.1-4.1V35.9
	c0-2.3-1.9-4.1-4.1-4.1C64.6,31.9,63.3,32.6,62.6,33.8z"/>
</svg>
