<?xml version="1.0" encoding="utf-8"?>
<!-- Generator: Adobe Illustrator 22.1.0, SVG Export Plug-In . SVG Version: 6.00 Build 0)  -->
<svg version="1.1" id="图层_1" xmlns="http://www.w3.org/2000/svg" xmlns:xlink="http://www.w3.org/1999/xlink" x="0px" y="0px"
	 viewBox="0 0 102 102" style="enable-background:new 0 0 102 102;" xml:space="preserve">
<style type="text/css">
	.st0{fill:#1B262C;}
	.st1{fill:#22313A;}
	.st2{fill:#26353D;}
	.st3{fill:#3877FF;}
	.st4{fill:#C47945;}
	.st5{fill:#A74FAA;}
	.st6{fill:#16C79A;}
	.st7{fill:#3D4A52;}
	.st8{fill:#FFFFFF;}
	.st9{fill:#282D49;}
	.st10{fill:none;stroke:#51AAF4;stroke-miterlimit:10;}
	.st11{fill:none;stroke:#FFFFFF;stroke-width:5;stroke-miterlimit:10;}
	.st12{fill:#FFFFFF;stroke:#FFFFFF;stroke-width:0.75;stroke-miterlimit:10;}
	.st13{fill:none;stroke:#22313A;stroke-width:2;stroke-miterlimit:10;}
	.st14{fill:none;stroke:#3877FF;stroke-width:2;stroke-miterlimit:10;}
	.st15{fill:none;stroke:#16C79A;stroke-width:2;stroke-miterlimit:10;}
	.st16{fill:none;stroke:#22313A;stroke-width:2;stroke-linecap:round;stroke-linejoin:round;stroke-miterlimit:10;}
	.st17{fill:#16C79A;stroke:#282D49;stroke-width:2;stroke-miterlimit:10;}
	.st18{fill:none;stroke:#C47945;stroke-width:2;stroke-miterlimit:10;}
	.st19{fill:#C47945;stroke:#22313A;stroke-width:2;stroke-miterlimit:10;}
	.st20{fill:none;stroke:#A74FAA;stroke-width:2;stroke-miterlimit:10;}
	.st21{fill:#A74FAA;stroke:#282D49;stroke-width:2;stroke-miterlimit:10;}
	.st22{fill:url(#SVGID_1_);}
	.st23{fill:#FFF0F0;}
	.st24{fill:#FF33FF;}
	.st25{fill:#5967EA;}
	.st26{fill:#0F0F0F;}
	.st27{fill:none;stroke:#282D49;stroke-width:2;stroke-miterlimit:10;}
	.st28{fill:none;stroke:#282D49;stroke-width:8;stroke-linecap:round;stroke-linejoin:round;stroke-miterlimit:10;}
	.st29{fill:#16C79A;stroke:#282D49;stroke-width:8;stroke-linecap:round;stroke-linejoin:round;stroke-miterlimit:10;}
	.st30{fill:#00EF8B;}
	.st31{fill:#16FF99;}
	.st32{clip-path:url(#SVGID_3_);}
	.st33{fill:url(#SVGID_4_);}
	.st34{fill:#633001;}
	.st35{fill:#FEDC90;}
	.st36{fill:#D1884F;}
	.st37{fill:#8247E5;}
	.st38{fill:#F3BA2F;}
	.st39{fill:url(#SVGID_5_);}
	.st40{fill:url(#SVGID_6_);}
	.st41{fill:url(#SVGID_7_);}
	.st42{fill:#343434;}
	.st43{fill:#8C8C8C;}
	.st44{fill:#3C3C3B;}
	.st45{fill:#141414;}
	.st46{fill:#393939;}
	.st47{fill:url(#SVGID_8_);}
	.st48{fill:#FF007A;}
</style>
<g>
	<path class="st34" d="M37.5,36.4c-0.6-3.5,2-6.6,5.5-6.6c3.1,0,5.6,2.5,5.6,5.6v6.9c0.8-0.1,1.6-0.1,2.4-0.1c0.8,0,1.5,0,2.3,0.1
		v-6.9c0-3.1,2.5-5.6,5.6-5.6c3.5,0,6.2,3.2,5.5,6.6l-1.5,8.1c5.2,2.3,9.2,6.2,9.2,11.2v3c0,4.1-2.7,7.5-6.5,9.8
		c-3.8,2.3-9,3.7-14.6,3.7c-5.6,0-10.7-1.4-14.6-3.7c-3.8-2.3-6.5-5.7-6.5-9.8v-3c0-4.9,3.9-8.9,9.1-11.2L37.5,36.4z M60.9,45.6
		l1.8-9.5c0.4-2.4-1.4-4.6-3.8-4.6c-2.2,0-3.9,1.7-3.9,3.9v8.8c-0.6-0.1-1.1-0.1-1.7-0.2c-0.7-0.1-1.5-0.1-2.3-0.1
		c-0.8,0-1.6,0-2.4,0.1c-0.6,0-1.2,0.1-1.7,0.2v-8.8c0-2.2-1.7-3.9-3.9-3.9c-2.4,0-4.3,2.2-3.8,4.6l1.8,9.5
		c-5.6,2.1-9.3,5.8-9.3,10.1v3c0,6.5,8.6,11.8,19.3,11.8c10.7,0,19.3-5.3,19.3-11.8v-3C70.3,51.4,66.6,47.7,60.9,45.6z"/>
	<path class="st35" d="M70.3,58.7c0,6.5-8.6,11.8-19.3,11.8c-10.7,0-19.3-5.3-19.3-11.8v-3h38.6V58.7z"/>
	<path class="st36" d="M39.2,36.1c-0.4-2.4,1.4-4.6,3.8-4.6c2.2,0,3.9,1.7,3.9,3.9v8.8c1.3-0.2,2.7-0.3,4.1-0.3c1.4,0,2.7,0.1,4,0.3
		v-8.8c0-2.2,1.7-3.9,3.9-3.9c2.4,0,4.3,2.2,3.8,4.6l-1.8,9.5c5.6,2.1,9.4,5.8,9.4,10.1c0,6.5-8.6,11.8-19.3,11.8
		c-10.7,0-19.3-5.3-19.3-11.8c0-4.3,3.7-8,9.3-10.1L39.2,36.1z"/>
	<path class="st34" d="M45.6,54.9c0,1.8-1,3.2-2.1,3.2c-1.2,0-2.1-1.4-2.1-3.2c0-1.8,1-3.2,2.1-3.2C44.7,51.6,45.6,53.1,45.6,54.9z"
		/>
	<path class="st34" d="M60.4,54.9c0,1.8-1,3.2-2.1,3.2c-1.2,0-2.1-1.4-2.1-3.2c0-1.8,1-3.2,2.1-3.2C59.5,51.6,60.4,53.1,60.4,54.9z"
		/>
</g>
</svg>
