<?xml version="1.0" encoding="utf-8"?>
<!-- Generator: Adobe Illustrator 22.1.0, SVG Export Plug-In . SVG Version: 6.00 Build 0)  -->
<svg version="1.1" id="图层_1" xmlns="http://www.w3.org/2000/svg" xmlns:xlink="http://www.w3.org/1999/xlink" x="0px" y="0px"
	 viewBox="0 0 239.061 109.059" enable-background="new 0 0 239.061 109.059" xml:space="preserve">
<g>
	<path fill="#CBE0FF" d="M40.351,105.541V89.296H6.681V67.024l41.53-52.928h17.031v52.928h11.529v22.272H65.242v16.245H40.351z
		 M31.18,67.024h12.053V51.303L31.18,67.024z"/>
	<path fill="#3458F0" d="M65.801,106.099H39.792V89.854H6.123V66.831L47.94,13.538h17.861v52.928H77.33v23.388H65.801V106.099z
		 M40.909,104.983h23.775V88.738h11.529V67.583H64.684V14.655H48.483L7.24,67.218v21.52h33.67V104.983z M43.792,67.583H30.048
		l13.743-17.926V67.583z M32.311,66.466h10.363V52.949L32.311,66.466z"/>
</g>
<g>
	<path fill="#CBE0FF" d="M156.425,50.517c0,5.764-0.875,11.07-2.621,15.918c-1.748,4.847-4.171,9.04-7.271,12.577
		c-3.101,3.537-6.769,6.288-11.004,8.254c-4.238,1.965-8.844,2.948-13.822,2.948c-4.978,0-9.586-0.983-13.821-2.948
		c-4.237-1.965-7.906-4.717-11.005-8.254c-3.101-3.537-5.524-7.73-7.271-12.577c-1.748-4.847-2.62-10.153-2.62-15.918
		c0-5.764,0.872-11.07,2.62-15.918c1.747-4.847,4.17-9.04,7.271-12.577c3.099-3.537,6.768-6.309,11.005-8.319
		c4.235-2.008,8.843-3.013,13.821-3.013c4.979,0,9.584,1.005,13.822,3.013c4.235,2.01,7.904,4.782,11.004,8.319
		c3.1,3.537,5.523,7.73,7.271,12.577C155.55,39.447,156.425,44.753,156.425,50.517z M131.271,50.517
		c0-5.064-0.896-9.171-2.686-12.315c-1.791-3.144-4.084-4.716-6.878-4.716c-2.97,0-5.351,1.572-7.14,4.716
		c-1.791,3.144-2.686,7.25-2.686,12.315c0,5.066,0.894,9.15,2.686,12.249c1.789,3.101,4.17,4.651,7.14,4.651
		c2.795,0,5.087-1.55,6.878-4.651C130.375,59.667,131.271,55.584,131.271,50.517z"/>
	<path fill="#3458F0" d="M121.707,90.771c-5.037,0-9.766-1.009-14.056-2.999c-4.289-1.989-8.053-4.813-11.19-8.392
		c-3.133-3.574-5.614-7.866-7.376-12.756c-1.76-4.882-2.653-10.301-2.653-16.107s0.893-11.225,2.653-16.107
		c1.762-4.89,4.244-9.182,7.376-12.755c3.133-3.576,6.897-6.421,11.186-8.455c4.292-2.035,9.022-3.067,14.061-3.067
		c5.036,0,9.767,1.032,14.062,3.067c4.287,2.035,8.05,4.88,11.185,8.456c3.131,3.572,5.612,7.864,7.376,12.755
		c1.761,4.889,2.654,10.308,2.654,16.107c0,5.799-0.893,11.218-2.654,16.107c-1.764,4.891-4.246,9.183-7.376,12.756
		c-3.137,3.579-6.902,6.403-11.189,8.392C131.472,89.762,126.742,90.771,121.707,90.771z M121.707,11.249
		c-4.871,0-9.441,0.996-13.582,2.959c-4.15,1.969-7.792,4.722-10.825,8.183c-3.04,3.468-5.451,7.639-7.166,12.398
		c-1.716,4.76-2.586,10.052-2.586,15.729c0,5.676,0.87,10.968,2.586,15.728c1.715,4.759,4.126,8.93,7.166,12.399
		c3.034,3.462,6.674,6.192,10.82,8.115c4.142,1.922,8.713,2.896,13.586,2.896c4.872,0,9.443-0.974,13.587-2.896
		c4.145-1.924,7.785-4.654,10.819-8.115c3.038-3.468,5.449-7.639,7.166-12.399c1.717-4.766,2.587-10.058,2.587-15.728
		c0-5.67-0.871-10.962-2.587-15.729c-1.717-4.76-4.128-8.931-7.166-12.398c-3.033-3.46-6.675-6.213-10.824-8.183
		C131.146,12.244,126.576,11.249,121.707,11.249z M121.707,67.976c-3.172,0-5.736-1.659-7.623-4.93
		c-1.832-3.169-2.76-7.384-2.76-12.528c0-5.142,0.928-9.378,2.759-12.591c1.887-3.317,4.453-4.998,7.625-4.998
		c2.996,0,5.474,1.682,7.364,4.998c1.83,3.217,2.759,7.453,2.759,12.591c0,5.14-0.929,9.356-2.76,12.528
		C127.18,66.317,124.702,67.976,121.707,67.976z M121.707,34.044c-2.78,0-4.956,1.451-6.654,4.434
		c-1.733,3.043-2.612,7.093-2.612,12.039s0.878,8.973,2.611,11.97c1.697,2.942,3.874,4.372,6.656,4.372
		c2.604,0,4.696-1.43,6.395-4.372c1.732-3.001,2.611-7.028,2.611-11.97c0-4.942-0.879-8.992-2.613-12.039
		C126.4,35.495,124.309,34.044,121.707,34.044z"/>
</g>
<path fill="#CBE0FF" d="M197.562,105.541V89.296h-33.67V67.024l41.53-52.928h17.031v52.928h11.529v22.272h-11.529v16.245H197.562z
	 M188.391,67.024h12.053V51.303L188.391,67.024z"/>
<path fill="#3458F0" d="M223.012,106.099h-26.009V89.854h-33.669V66.831l41.817-53.293h17.861v52.928h11.529v23.388h-11.529V106.099
	z M198.12,104.983h23.775V88.738h11.529V67.583h-11.529V14.655h-16.201l-41.243,52.563v21.52h33.67V104.983z M201.002,67.583H187.26
	l13.743-17.926V67.583z M189.523,66.466h10.363V52.949L189.523,66.466z"/>
</svg>
